<svg width="512" height="512" viewBox="0 0 512 512" fill="none" xmlns="http://www.w3.org/2000/svg">
  <defs>
    <linearGradient id="bg" x1="64" y1="48" x2="448" y2="464" gradientUnits="userSpaceOnUse">
      <stop stop-color="#0E1222"/>
      <stop offset="1" stop-color="#1B2138"/>
    </linearGradient>
    <linearGradient id="accent" x1="148" y1="112" x2="372" y2="376" gradientUnits="userSpaceOnUse">
      <stop stop-color="#8B5CF6"/>
      <stop offset="1" stop-color="#22D3EE"/>
    </linearGradient>
    <linearGradient id="ring" x1="122" y1="122" x2="390" y2="390" gradientUnits="userSpaceOnUse">
      <stop stop-color="#A78BFA"/>
      <stop offset="1" stop-color="#38BDF8"/>
    </linearGradient>
  </defs>
  <rect x="40" y="40" width="432" height="432" rx="112" fill="url(#bg)"/>
  <rect x="40" y="40" width="432" height="432" rx="112" stroke="#30395C" stroke-width="8"/>
  <circle cx="256" cy="256" r="118" fill="#12182C" stroke="url(#ring)" stroke-width="18"/>
  <path d="M256 142L330 176V236C330 298 291 349 256 370C221 349 182 298 182 236V176L256 142Z" fill="#161D33" stroke="url(#accent)" stroke-width="14" stroke-linejoin="round"/>
  <path d="M256 190C225 190 200 215 200 246V248H312V246C312 215 287 190 256 190Z" fill="url(#accent)" opacity="0.9"/>
  <path d="M256 262L276 302H236L256 262Z" fill="#F8FAFC"/>
  <circle cx="256" cy="248" r="16" fill="#F8FAFC"/>
  <circle cx="256" cy="256" r="154" stroke="#6D7BA7" stroke-opacity="0.18" stroke-width="2"/>
  <circle cx="256" cy="256" r="180" stroke="#6D7BA7" stroke-opacity="0.1" stroke-width="2"/>
</svg>
